<svg width="35" height="35" viewBox="0 0 35 35" fill="none" xmlns="http://www.w3.org/2000/svg">
<path d="M17.5 0C19.9167 0 22.1875 0.458333 24.3125 1.375C26.4375 2.29167 28.2917 3.54167 29.875 5.125C31.4583 6.70833 32.7083 8.5625 33.625 10.6875C34.5417 12.8125 35 15.0833 35 17.5C35 19.9167 34.5417 22.1875 33.625 24.3125C32.7083 26.4375 31.4583 28.2917 29.875 29.875C28.2917 31.4583 26.4375 32.7083 24.3125 33.625C22.1875 34.5417 19.9167 35 17.5 35C15.0833 35 12.8125 34.5417 10.6875 33.625C8.5625 32.7083 6.70833 31.4583 5.125 29.875C3.54167 28.2917 2.29167 26.4375 1.375 24.3125C0.458333 22.1875 0 19.9167 0 17.5C0 15.0833 0.458333 12.8125 1.375 10.6875C2.29167 8.5625 3.54167 6.70833 5.125 5.125C6.70833 3.54167 8.5625 2.29167 10.6875 1.375C12.8125 0.458333 15.0833 0 17.5 0ZM7.66667 22.0417L12.9167 18.2917L7.66667 14.5417V22.0417ZM27.3333 23.7083L20.9167 19.125L17.5 21.5833L14.0417 19.125L7.66667 23.7083V26.25H27.3333V23.7083ZM27.3333 14.5417L22.0833 18.2917L27.3333 22.0417V14.5417ZM27.3333 8.75H7.66667V11.2917L17.5 18.2917L27.3333 11.2917V8.75Z" fill="white"/>
</svg>
