<svg width="35" height="35" viewBox="0 0 35 35" fill="none" xmlns="http://www.w3.org/2000/svg">
<path d="M17.4791 0C19.9044 0 22.1764 0.459976 24.2951 1.37993C26.4138 2.29988 28.2676 3.54739 29.8566 5.12246C31.4456 6.69753 32.7001 8.5444 33.6201 10.6631C34.54 12.7818 35 15.0538 35 17.4791C35 19.9044 34.54 22.1764 33.6201 24.2951C32.7001 26.4138 31.4456 28.2676 29.8566 29.8566C28.2676 31.4456 26.4138 32.7001 24.2951 33.6201C22.1764 34.54 19.9044 35 17.4791 35C15.0538 35 12.7818 34.54 10.6631 33.6201C8.5444 32.7001 6.69753 31.4456 5.12246 29.8566C3.54739 28.2676 2.29988 26.4138 1.37993 24.2951C0.459976 22.1764 0 19.9044 0 17.4791C0 15.0538 0.459976 12.7818 1.37993 10.6631C2.29988 8.5444 3.54739 6.69753 5.12246 5.12246C6.69753 3.54739 8.5444 2.29988 10.6631 1.37993C12.7818 0.459976 15.0538 0 17.4791 0ZM12.043 13.1302H7.65233V27.3477H12.043V13.1302ZM9.82676 12.0012C10.4401 12.0012 10.9628 11.7921 11.3949 11.374C11.827 10.9558 12.043 10.4401 12.043 9.82676C12.043 9.21346 11.827 8.69773 11.3949 8.27957C10.9628 7.86141 10.4401 7.65233 9.82676 7.65233C9.21346 7.65233 8.69773 7.86141 8.27957 8.27957C7.86141 8.69773 7.65233 9.21346 7.65233 9.82676C7.65233 10.4401 7.86141 10.9558 8.27957 11.374C8.69773 11.7921 9.21346 12.0012 9.82676 12.0012ZM27.3477 19.1099C27.3477 18.1063 27.0689 17.1237 26.5114 16.1619C25.9538 15.2001 25.229 14.4683 24.3369 13.9665C23.5285 13.5205 22.5876 13.2836 21.5143 13.2557C20.4411 13.2278 19.4584 13.409 18.5663 13.7993V13.1302H14.2174V27.3477H18.5663V18.6499L20.4062 17.7718C20.6292 17.6603 20.9289 17.6045 21.3053 17.6045C21.6816 17.6045 21.9813 17.6742 22.2043 17.8136C22.3716 17.8973 22.5388 18.0785 22.7061 18.3572C22.8734 18.636 22.957 18.8869 22.957 19.1099V27.3477H27.3477V19.1099Z" fill="white"/>
</svg>
